<mxfile host="app.diagrams.net" agent="Mozilla/5.0 (Macintosh; Intel Mac OS X 10_15_7) AppleWebKit/537.36 (KHTML, like Gecko) Chrome/140.0.0.0 Safari/537.36" version="28.2.5">
  <diagram id="C5RBs43oDa-KdzZeNtuy" name="Page-1">
    <mxGraphModel grid="1" page="1" gridSize="10" guides="1" tooltips="1" connect="1" arrows="1" fold="1" pageScale="1" pageWidth="827" pageHeight="1169" math="0" shadow="0">
      <root>
        <mxCell id="WIyWlLk6GJQsqaUBKTNV-0" />
        <mxCell id="WIyWlLk6GJQsqaUBKTNV-1" parent="WIyWlLk6GJQsqaUBKTNV-0" />
        <mxCell id="VhkKwq98yscAYDJOnd1w-15" value="" style="shape=cylinder3;whiteSpace=wrap;html=1;boundedLbl=1;backgroundOutline=1;size=15;" vertex="1" parent="WIyWlLk6GJQsqaUBKTNV-1">
          <mxGeometry x="234" y="530" width="180" height="220" as="geometry" />
        </mxCell>
        <mxCell id="VhkKwq98yscAYDJOnd1w-0" value="Customer Enriched" style="rounded=0;whiteSpace=wrap;html=1;" vertex="1" parent="WIyWlLk6GJQsqaUBKTNV-1">
          <mxGeometry x="289" y="570" width="70" height="70" as="geometry" />
        </mxCell>
        <mxCell id="VhkKwq98yscAYDJOnd1w-1" value="Enrichment Audit" style="rounded=0;whiteSpace=wrap;html=1;" vertex="1" parent="WIyWlLk6GJQsqaUBKTNV-1">
          <mxGeometry x="289" y="650" width="70" height="70" as="geometry" />
        </mxCell>
        <mxCell id="VhkKwq98yscAYDJOnd1w-2" value="&lt;h2&gt;Create tables&lt;/h2&gt;" style="rounded=1;whiteSpace=wrap;html=1;" vertex="1" parent="WIyWlLk6GJQsqaUBKTNV-1">
          <mxGeometry x="100" y="650" width="120" height="60" as="geometry" />
        </mxCell>
        <mxCell id="VhkKwq98yscAYDJOnd1w-3" value="&lt;h2&gt;Database Load&lt;/h2&gt;" style="rounded=1;whiteSpace=wrap;html=1;align=left;" vertex="1" parent="WIyWlLk6GJQsqaUBKTNV-1">
          <mxGeometry x="-80" y="760" width="620" height="460" as="geometry" />
        </mxCell>
        <mxCell id="VhkKwq98yscAYDJOnd1w-4" value="Does customer&amp;nbsp;&lt;div&gt;exist?&lt;/div&gt;" style="rhombus;whiteSpace=wrap;html=1;shadow=0;fontFamily=Helvetica;fontSize=12;align=center;strokeWidth=1;spacing=6;spacingTop=-4;" vertex="1" parent="WIyWlLk6GJQsqaUBKTNV-1">
          <mxGeometry x="95" y="870" width="130" height="100" as="geometry" />
        </mxCell>
        <mxCell id="VhkKwq98yscAYDJOnd1w-5" value="Update record" style="rounded=1;whiteSpace=wrap;html=1;" vertex="1" parent="WIyWlLk6GJQsqaUBKTNV-1">
          <mxGeometry x="310" y="890" width="120" height="60" as="geometry" />
        </mxCell>
        <mxCell id="VhkKwq98yscAYDJOnd1w-6" value="Insert customer record" style="rounded=1;whiteSpace=wrap;html=1;" vertex="1" parent="WIyWlLk6GJQsqaUBKTNV-1">
          <mxGeometry x="100" y="1020" width="120" height="60" as="geometry" />
        </mxCell>
        <mxCell id="VhkKwq98yscAYDJOnd1w-7" value="" style="rounded=0;html=1;jettySize=auto;orthogonalLoop=1;fontSize=11;endArrow=block;endFill=0;endSize=8;strokeWidth=1;shadow=0;labelBackgroundColor=none;edgeStyle=orthogonalEdgeStyle;" edge="1" parent="WIyWlLk6GJQsqaUBKTNV-1">
          <mxGeometry relative="1" as="geometry">
            <mxPoint x="160" y="710" as="sourcePoint" />
            <mxPoint x="160" y="870" as="targetPoint" />
          </mxGeometry>
        </mxCell>
        <mxCell id="VhkKwq98yscAYDJOnd1w-10" value="Yes" style="edgeStyle=orthogonalEdgeStyle;rounded=0;html=1;jettySize=auto;orthogonalLoop=1;fontSize=11;endArrow=block;endFill=0;endSize=8;strokeWidth=1;shadow=0;labelBackgroundColor=none;exitX=1;exitY=0.5;exitDx=0;exitDy=0;" edge="1" parent="WIyWlLk6GJQsqaUBKTNV-1" source="VhkKwq98yscAYDJOnd1w-4">
          <mxGeometry y="10" relative="1" as="geometry">
            <mxPoint as="offset" />
            <mxPoint x="330" y="620" as="sourcePoint" />
            <mxPoint x="310" y="920" as="targetPoint" />
          </mxGeometry>
        </mxCell>
        <mxCell id="VhkKwq98yscAYDJOnd1w-11" value="" style="rounded=0;html=1;jettySize=auto;orthogonalLoop=1;fontSize=11;endArrow=block;endFill=0;endSize=8;strokeWidth=1;shadow=0;labelBackgroundColor=none;edgeStyle=orthogonalEdgeStyle;" edge="1" parent="WIyWlLk6GJQsqaUBKTNV-1">
          <mxGeometry relative="1" as="geometry">
            <mxPoint x="159" y="970" as="sourcePoint" />
            <mxPoint x="159" y="1020" as="targetPoint" />
          </mxGeometry>
        </mxCell>
        <mxCell id="VhkKwq98yscAYDJOnd1w-12" value="No" style="edgeLabel;html=1;align=center;verticalAlign=middle;resizable=0;points=[];" connectable="0" vertex="1" parent="VhkKwq98yscAYDJOnd1w-11">
          <mxGeometry x="-0.12" y="1" relative="1" as="geometry">
            <mxPoint as="offset" />
          </mxGeometry>
        </mxCell>
        <mxCell id="VhkKwq98yscAYDJOnd1w-16" value="Insert audit record" style="rounded=1;whiteSpace=wrap;html=1;" vertex="1" parent="WIyWlLk6GJQsqaUBKTNV-1">
          <mxGeometry x="100" y="1130" width="120" height="60" as="geometry" />
        </mxCell>
        <mxCell id="VhkKwq98yscAYDJOnd1w-17" value="" style="rounded=0;html=1;jettySize=auto;orthogonalLoop=1;fontSize=11;endArrow=block;endFill=0;endSize=8;strokeWidth=1;shadow=0;labelBackgroundColor=none;edgeStyle=orthogonalEdgeStyle;" edge="1" parent="WIyWlLk6GJQsqaUBKTNV-1">
          <mxGeometry relative="1" as="geometry">
            <mxPoint x="159" y="1080" as="sourcePoint" />
            <mxPoint x="159" y="1130" as="targetPoint" />
          </mxGeometry>
        </mxCell>
        <mxCell id="VhkKwq98yscAYDJOnd1w-18" value="" style="endArrow=none;html=1;rounded=0;entryX=0.5;entryY=1;entryDx=0;entryDy=0;" edge="1" parent="WIyWlLk6GJQsqaUBKTNV-1" target="VhkKwq98yscAYDJOnd1w-5">
          <mxGeometry width="50" height="50" relative="1" as="geometry">
            <mxPoint x="370" y="1160" as="sourcePoint" />
            <mxPoint x="369.5" y="960" as="targetPoint" />
          </mxGeometry>
        </mxCell>
        <mxCell id="VhkKwq98yscAYDJOnd1w-20" value="" style="rounded=0;html=1;jettySize=auto;orthogonalLoop=1;fontSize=11;endArrow=block;endFill=0;endSize=8;strokeWidth=1;shadow=0;labelBackgroundColor=none;edgeStyle=orthogonalEdgeStyle;entryX=1;entryY=0.5;entryDx=0;entryDy=0;" edge="1" parent="WIyWlLk6GJQsqaUBKTNV-1" target="VhkKwq98yscAYDJOnd1w-16">
          <mxGeometry relative="1" as="geometry">
            <mxPoint x="370" y="1160" as="sourcePoint" />
            <mxPoint x="280" y="1150" as="targetPoint" />
          </mxGeometry>
        </mxCell>
        <mxCell id="VhkKwq98yscAYDJOnd1w-21" value="&lt;h2&gt;Data Validation&amp;nbsp;&lt;/h2&gt;&lt;h2&gt;&amp;amp; Testing&lt;/h2&gt;" style="rounded=1;whiteSpace=wrap;html=1;align=left;" vertex="1" parent="WIyWlLk6GJQsqaUBKTNV-1">
          <mxGeometry x="-80" y="1260" width="620" height="370" as="geometry" />
        </mxCell>
        <mxCell id="VhkKwq98yscAYDJOnd1w-22" value="Record count" style="rounded=1;whiteSpace=wrap;html=1;" vertex="1" parent="WIyWlLk6GJQsqaUBKTNV-1">
          <mxGeometry x="100" y="1300" width="120" height="60" as="geometry" />
        </mxCell>
        <mxCell id="VhkKwq98yscAYDJOnd1w-23" value="Data completeness" style="rounded=1;whiteSpace=wrap;html=1;" vertex="1" parent="WIyWlLk6GJQsqaUBKTNV-1">
          <mxGeometry x="100" y="1380" width="120" height="60" as="geometry" />
        </mxCell>
        <mxCell id="VhkKwq98yscAYDJOnd1w-24" value="Risk distribution" style="rounded=1;whiteSpace=wrap;html=1;" vertex="1" parent="WIyWlLk6GJQsqaUBKTNV-1">
          <mxGeometry x="100" y="1460" width="120" height="60" as="geometry" />
        </mxCell>
        <mxCell id="VhkKwq98yscAYDJOnd1w-25" value="Audit trail" style="rounded=1;whiteSpace=wrap;html=1;" vertex="1" parent="WIyWlLk6GJQsqaUBKTNV-1">
          <mxGeometry x="100" y="1540" width="120" height="60" as="geometry" />
        </mxCell>
        <mxCell id="VhkKwq98yscAYDJOnd1w-26" value="Better way than SELECT count(*) WHERE customer_id = ?" style="ellipse;shape=cloud;whiteSpace=wrap;html=1;spacing=2;spacingTop=0;spacingLeft=25;spacingRight=25;" vertex="1" parent="WIyWlLk6GJQsqaUBKTNV-1">
          <mxGeometry x="-200" y="790" width="270" height="140" as="geometry" />
        </mxCell>
        <mxCell id="VhkKwq98yscAYDJOnd1w-27" value="Shift this into pytest and/or dbt tests" style="ellipse;shape=cloud;whiteSpace=wrap;html=1;spacing=2;spacingTop=0;spacingLeft=25;spacingRight=25;" vertex="1" parent="WIyWlLk6GJQsqaUBKTNV-1">
          <mxGeometry x="390" y="1300" width="270" height="140" as="geometry" />
        </mxCell>
        <mxCell id="VhkKwq98yscAYDJOnd1w-28" value="Define this schema in a dbt model" style="ellipse;shape=cloud;whiteSpace=wrap;html=1;spacing=2;spacingTop=0;spacingLeft=25;spacingRight=25;" vertex="1" parent="WIyWlLk6GJQsqaUBKTNV-1">
          <mxGeometry x="370" y="560" width="270" height="140" as="geometry" />
        </mxCell>
        <mxCell id="VhkKwq98yscAYDJOnd1w-37" value="" style="edgeStyle=orthogonalEdgeStyle;rounded=0;orthogonalLoop=1;jettySize=auto;html=1;endArrow=block;endFill=0;" edge="1" parent="WIyWlLk6GJQsqaUBKTNV-1" source="VhkKwq98yscAYDJOnd1w-29" target="VhkKwq98yscAYDJOnd1w-2">
          <mxGeometry relative="1" as="geometry" />
        </mxCell>
        <mxCell id="VhkKwq98yscAYDJOnd1w-29" value="&lt;h2&gt;Set up DB connection&lt;/h2&gt;" style="rounded=1;whiteSpace=wrap;html=1;" vertex="1" parent="WIyWlLk6GJQsqaUBKTNV-1">
          <mxGeometry x="100" y="540" width="120" height="60" as="geometry" />
        </mxCell>
        <mxCell id="VhkKwq98yscAYDJOnd1w-30" value="Create a &lt;b&gt;db_config&lt;/b&gt; module" style="ellipse;shape=cloud;whiteSpace=wrap;html=1;spacing=2;spacingTop=0;spacingLeft=10;spacingRight=10;" vertex="1" parent="WIyWlLk6GJQsqaUBKTNV-1">
          <mxGeometry x="-170" y="445" width="270" height="140" as="geometry" />
        </mxCell>
        <mxCell id="VhkKwq98yscAYDJOnd1w-31" value="Create a &lt;b&gt;load&lt;/b&gt; module" style="ellipse;shape=cloud;whiteSpace=wrap;html=1;spacing=2;spacingTop=0;spacingLeft=10;spacingRight=10;" vertex="1" parent="WIyWlLk6GJQsqaUBKTNV-1">
          <mxGeometry x="440" y="990" width="270" height="140" as="geometry" />
        </mxCell>
        <mxCell id="VhkKwq98yscAYDJOnd1w-32" value="" style="rounded=0;html=1;jettySize=auto;orthogonalLoop=1;fontSize=11;endArrow=block;endFill=0;endSize=8;strokeWidth=1;shadow=0;labelBackgroundColor=none;edgeStyle=orthogonalEdgeStyle;exitX=0.5;exitY=1;exitDx=0;exitDy=0;" edge="1" parent="WIyWlLk6GJQsqaUBKTNV-1" source="VhkKwq98yscAYDJOnd1w-16" target="VhkKwq98yscAYDJOnd1w-22">
          <mxGeometry relative="1" as="geometry">
            <mxPoint x="280" y="1110" as="sourcePoint" />
            <mxPoint x="280" y="1160" as="targetPoint" />
          </mxGeometry>
        </mxCell>
        <mxCell id="VhkKwq98yscAYDJOnd1w-33" value="Create a &lt;b&gt;fetch&lt;/b&gt;&amp;nbsp;module to replace insertion of sample data" style="ellipse;shape=cloud;whiteSpace=wrap;html=1;spacing=2;spacingTop=0;spacingLeft=25;spacingRight=25;" vertex="1" parent="WIyWlLk6GJQsqaUBKTNV-1">
          <mxGeometry x="420" y="710" width="270" height="140" as="geometry" />
        </mxCell>
        <mxCell id="VhkKwq98yscAYDJOnd1w-38" value="Upsert Test" style="rounded=1;whiteSpace=wrap;html=1;" vertex="1" parent="WIyWlLk6GJQsqaUBKTNV-1">
          <mxGeometry x="310" y="1540" width="120" height="60" as="geometry" />
        </mxCell>
      </root>
    </mxGraphModel>
  </diagram>
</mxfile>
